<?xml version="1.0" encoding="utf-8"?>
<!DOCTYPE svg PUBLIC "-//W3C//DTD SVG 1.0//EN" "http://www.w3.org/TR/2001/REC-SVG-20010904/DTD/svg10.dtd">
<svg xmlns="http://www.w3.org/2000/svg" viewBox="-0.89 -0.622 242 166" width="50%">
  <defs>
	<style type="text/css"><![CDATA[
path, polygon, circle {
  stroke:black;
  stroke-linecap:round;
  stroke-linejoin:round;
}

.picto				{ stroke-width:3; }

#textshadow path	{ fill:black; stroke:black; stroke-width:6; }
#text path			{ fill:white; stroke:#777; }
#smiley .eye		{ fill:black; stroke:none; }
#smiley .picto		{ fill:#3c9; }
#house1				{ fill:#9ce; }
#house2				{ fill:#ff6; }
#skyscraper			{ fill:#f66; }
    ]]></style>
  </defs>
  <g>
	<polygon class="picto" id="skyscraper" points="106.401,14.389 106.401,1.5 100.401,1.5 100.401,14.389 69.858,14.389 69.858,104.389 114.858,104.389 114.858,14.389 "/>
	<polygon class="picto" id="house2" points="174.463,81.372 174.463,74.02 168.2,74.02 168.2,77.196 157.461,70.038 130.461,88.038 139.461,88.038 139.461,115.038 175.461,115.038 175.461,88.038 184.461,88.038 "/>
	<polygon class="picto" id="house1" points="79.914,81.372 79.914,74.02 73.651,74.02 73.651,77.196 62.913,70.038 35.913,88.038 44.913,88.038 44.913,115.038 80.912,115.038 80.912,88.038 89.912,88.038 "/>
	<g id="smiley">
	  <circle class="picto" cx="124.465" cy="64.363" r="27.5"/>
	  <circle class="eye" cx="133.966" cy="60.362" r="5"/>
	  <circle class="eye" cx="114.966" cy="60.362" r="5"/>
	</g>
  </g>
  <g id="textshadow">
	<path d="M9,137.875H7.921c-3,0-4.921-1.32-4.921-4.32s1.921-4.32,4.921-4.32H9v-4.2c0-5.7,3.961-10.08,9.721-10.08c2.88,0,6.24,0.78,6.24,4.32c0,2.94-1.5,4.32-4.44,4.32c-1.44,0-2.16,0.66-2.16,3.06v2.58h2.58c3,0,4.92,1.32,4.92,4.32s-1.92,4.32-4.92,4.32h-2.58v18.78c0,2.7-1.92,4.86-4.68,4.86S9,159.355,9,156.655V137.875z"/>
	<path d="M56.268,145.195c0,9.42-6.3,16.92-15.78,16.92c-9.479,0-15.779-7.5-15.779-16.92c0-9.42,6.3-16.92,15.779-16.92C49.968,128.274,56.268,135.774,56.268,145.195z M34.067,145.195c0,4.32,2.28,7.92,6.42,7.92c4.141,0,6.421-3.6,6.421-7.92c0-4.32-2.28-7.92-6.421-7.92C36.348,137.274,34.067,140.875,34.067,145.195z"/>
	<path d="M88.986,156.655c0,2.7-1.92,4.86-4.68,4.86c-2.28,0-3.72-1.56-4.38-3c-2.101,2.58-4.5,3.6-8.04,3.6c-8.16,0-14.46-7.5-14.46-16.92c0-9.42,6.3-16.92,14.46-16.92c3.54,0,5.939,1.02,8.04,3.6c0.66-1.44,2.1-3,4.38-3c2.76,0,4.68,2.16,4.68,4.86V156.655z M66.786,145.195c0,4.32,2.28,7.92,6.42,7.92c4.141,0,6.421-3.6,6.421-7.92c0-4.32-2.28-7.92-6.421-7.92C69.066,137.274,66.786,140.875,66.786,145.195z"/>
	<path d="M126.881,129.234h-2.58v-6.12c0-2.7-1.92-4.86-4.68-4.86s-4.681,2.16-4.681,4.86v6.12h-1.079c-1.286,0-5.074,0-6.36,0h-2.58v-2.58c0-2.4,0.72-3.06,2.16-3.06c2.94,0,4.44-1.38,4.44-4.32c0-3.54-3.36-4.32-6.24-4.32c-5.76,0-9.721,4.38-9.721,10.08v4.2h-1.079c-3,0-4.921,1.32-4.921,4.32s1.921,4.32,4.921,4.32h1.079v18.78c0,2.7,1.921,4.86,4.681,4.86s4.68-2.16,4.68-4.86v-18.78h2.58c1.286,0,5.074,0,6.36,0h1.079v18.78c0,2.7,1.921,4.86,4.681,4.86s4.68-2.16,4.68-4.86v-18.78h2.58c3,0,4.92-1.32,4.92-4.32S129.881,129.234,126.881,129.234z"/>
	<path d="M162.208,145.195c0,9.42-6.299,16.92-15.78,16.92c-9.479,0-15.779-7.5-15.779-16.92c0-9.42,6.3-16.92,15.779-16.92C155.909,128.274,162.208,135.774,162.208,145.195z M140.008,145.195c0,4.32,2.28,7.92,6.42,7.92c4.141,0,6.42-3.6,6.42-7.92c0-4.32-2.279-7.92-6.42-7.92C142.288,137.274,140.008,140.875,140.008,145.195z"/>
	<path d="M163.12,138.595c-0.779-2.1-1.318-3.54-1.439-5.22c0-2.46,1.621-4.5,4.74-4.5c2.221,0,3.84,1.2,4.439,3.3l4.561,15.18h0.121l4.199-13.14c0.779-2.46,1.68-5.34,5.039-5.34c3.361,0,4.262,2.88,5.041,5.34l4.199,13.14h0.121l4.561-15.18c0.6-2.1,2.219-3.3,4.439-3.3c3.119,0,4.74,2.04,4.74,4.5c-0.121,1.68-0.66,3.12-1.441,5.22l-6.539,18.3c-1.08,3.06-2.641,4.62-5.82,4.62c-3.359,0-4.5-1.74-5.58-4.92l-3.66-11.04h-0.119l-3.66,11.04c-1.08,3.18-2.221,4.92-5.58,4.92c-3.18,0-4.74-1.56-5.82-4.62L163.12,138.595z"/>
	<path d="M209.063,133.734c0-2.7,1.92-4.86,4.68-4.86c2.52,0,4.08,1.62,4.68,3c1.5-2.34,4.02-3.6,8.041-3.6c6.479,0,11.639,3.36,11.639,11.04v17.34c0,2.7-1.92,4.86-4.68,4.86s-4.68-2.16-4.68-4.86v-14.82c0-3.24-1.92-5.64-5.16-5.64s-5.16,2.4-5.16,5.64v14.82c0,2.7-1.92,4.86-4.68,4.86s-4.68-2.16-4.68-4.86V133.734z"/>
  </g>
  <g id="text">
	<path d="M9,137.875H7.921c-3,0-4.921-1.32-4.921-4.32s1.921-4.32,4.921-4.32H9v-4.2c0-5.7,3.961-10.08,9.721-10.08c2.88,0,6.24,0.78,6.24,4.32c0,2.94-1.5,4.32-4.44,4.32c-1.44,0-2.16,0.66-2.16,3.06v2.58h2.58c3,0,4.92,1.32,4.92,4.32s-1.92,4.32-4.92,4.32h-2.58v18.78c0,2.7-1.92,4.86-4.68,4.86S9,159.355,9,156.655V137.875z"/>
	<path d="M56.268,145.195c0,9.42-6.3,16.92-15.78,16.92c-9.479,0-15.779-7.5-15.779-16.92c0-9.42,6.3-16.92,15.779-16.92C49.968,128.274,56.268,135.774,56.268,145.195z M34.067,145.195c0,4.32,2.28,7.92,6.42,7.92c4.141,0,6.421-3.6,6.421-7.92c0-4.32-2.28-7.92-6.421-7.92C36.348,137.274,34.067,140.875,34.067,145.195z"/>
	<path d="M88.986,156.655c0,2.7-1.92,4.86-4.68,4.86c-2.28,0-3.72-1.56-4.38-3c-2.101,2.58-4.5,3.6-8.04,3.6c-8.16,0-14.46-7.5-14.46-16.92c0-9.42,6.3-16.92,14.46-16.92c3.54,0,5.939,1.02,8.04,3.6c0.66-1.44,2.1-3,4.38-3c2.76,0,4.68,2.16,4.68,4.86V156.655z M66.786,145.195c0,4.32,2.28,7.92,6.42,7.92c4.141,0,6.421-3.6,6.421-7.92c0-4.32-2.28-7.92-6.421-7.92C69.066,137.274,66.786,140.875,66.786,145.195z"/>
	<path d="M126.881,129.234h-2.58v-6.12c0-2.7-1.92-4.86-4.68-4.86s-4.681,2.16-4.681,4.86v6.12h-1.079c-1.286,0-5.074,0-6.36,0h-2.58v-2.58c0-2.4,0.72-3.06,2.16-3.06c2.94,0,4.44-1.38,4.44-4.32c0-3.54-3.36-4.32-6.24-4.32c-5.76,0-9.721,4.38-9.721,10.08v4.2h-1.079c-3,0-4.921,1.32-4.921,4.32s1.921,4.32,4.921,4.32h1.079v18.78c0,2.7,1.921,4.86,4.681,4.86s4.68-2.16,4.68-4.86v-18.78h2.58c1.286,0,5.074,0,6.36,0h1.079v18.78c0,2.7,1.921,4.86,4.681,4.86s4.68-2.16,4.68-4.86v-18.78h2.58c3,0,4.92-1.32,4.92-4.32S129.881,129.234,126.881,129.234z"/>
	<path d="M162.208,145.195c0,9.42-6.299,16.92-15.78,16.92c-9.479,0-15.779-7.5-15.779-16.92c0-9.42,6.3-16.92,15.779-16.92C155.909,128.274,162.208,135.774,162.208,145.195z M140.008,145.195c0,4.32,2.28,7.92,6.42,7.92c4.141,0,6.42-3.6,6.42-7.92c0-4.32-2.279-7.92-6.42-7.92C142.288,137.274,140.008,140.875,140.008,145.195z"/>
	<path d="M163.12,138.595c-0.779-2.1-1.318-3.54-1.439-5.22c0-2.46,1.621-4.5,4.74-4.5c2.221,0,3.84,1.2,4.439,3.3l4.561,15.18h0.121l4.199-13.14c0.779-2.46,1.68-5.34,5.039-5.34c3.361,0,4.262,2.88,5.041,5.34l4.199,13.14h0.121l4.561-15.18c0.6-2.1,2.219-3.3,4.439-3.3c3.119,0,4.74,2.04,4.74,4.5c-0.121,1.68-0.66,3.12-1.441,5.22l-6.539,18.3c-1.08,3.06-2.641,4.62-5.82,4.62c-3.359,0-4.5-1.74-5.58-4.92l-3.66-11.04h-0.119l-3.66,11.04c-1.08,3.18-2.221,4.92-5.58,4.92c-3.18,0-4.74-1.56-5.82-4.62L163.12,138.595z"/>
	<path d="M209.063,133.734c0-2.7,1.92-4.86,4.68-4.86c2.52,0,4.08,1.62,4.68,3c1.5-2.34,4.02-3.6,8.041-3.6c6.479,0,11.639,3.36,11.639,11.04v17.34c0,2.7-1.92,4.86-4.68,4.86s-4.68-2.16-4.68-4.86v-14.82c0-3.24-1.92-5.64-5.16-5.64s-5.16,2.4-5.16,5.64v14.82c0,2.7-1.92,4.86-4.68,4.86s-4.68-2.16-4.68-4.86V133.734z"/>
  </g>
</svg>
